PathFileType	4	(X/Y/Z)	/Users/niels/Desktop/University/Third Semester/Perception and Action/Exam/Gymnastics Motion Tracking/Code for Gym Tracking/Scripts/Analyzed Data/Start Salto/st_salto_bad_id9_3_Sports2D/st_salto_bad_id9_3_Sports2D_px_person00.trc
DataRate	CameraRate	NumFrames	NumMarkers	Units	OrigDataRate	OrigDataStartFrame	OrigNumFrames
29.825581395348838	29.825581395348838	12	22	m	29.825581395348838	107	172
Frame#	Time	Hip			RHip			RKnee			RAnkle			RBigToe			RSmallToe			RHeel			LHip			LKnee			LAnkle			LBigToe			LSmallToe			LHeel			Neck			Head			Nose			RShoulder			RElbow			RWrist			LShoulder			LElbow			LWrist		
		X1	Y1	Z1	X2	Y2	Z2	X3	Y3	Z3	X4	Y4	Z4	X5	Y5	Z5	X6	Y6	Z6	X7	Y7	Z7	X8	Y8	Z8	X9	Y9	Z9	X10	Y10	Z10	X11	Y11	Z11	X12	Y12	Z12	X13	Y13	Z13	X14	Y14	Z14	X15	Y15	Z15	X16	Y16	Z16	X17	Y17	Z17	X18	Y18	Z18	X19	Y19	Z19	X20	Y20	Z20	X21	Y21	Z21	X22	Y22	Z22
107	3.587524366471735	1.267197261392621	-0.3395438813994319	0.0	1.2713606066534857	-0.33316615481331224	0.0	1.3616405015285569	-0.19343110246764808	0.0	1.4922236666011206	-0.25727206519078744	0.0	1.5415384590848407	-0.21162792801625932	0.0	1.5463580630655773	-0.2255504830845606	0.0	1.505349288821354	-0.2793989189520492	0.0	1.2630864172512775	-0.3433366688782385	0.0	1.3469448209714099	-0.20527764910567586	0.0	1.4747461916650184	-0.255443128584795	0.0	1.5094603041888393	-0.22652276228510476	0.0	1.5108217482658397	-0.23633963415242804	0.0	1.4845155138973736	-0.28532475659530077	0.0	1.1315047428271057	-0.22369623628908772	0.0	1.0941449609134144	-0.14758663329343236	0.0	1.1456704268776798	-0.1749626602326488	0.0	1.1307084069296653	-0.2175053830656619	0.0	1.2423878997636975	-0.2283686376978824	0.0	1.3091578522262035	-0.19154865587510647	0.0	1.1198492525314137	-0.243291796124347	0.0	1.2172222565390858	-0.23345552510967207	0.0	1.2962940132593896	-0.2045332979054348	0.0
108	3.6210526315789475	1.2708072813978397	-0.34425856745313477	0.0	1.276296671129001	-0.3370367611944311	0.0	1.3810813184818542	-0.20778253936907265	0.0	1.5078817834159608	-0.27901699160961924	0.0	1.560928312392311	-0.23672298804260022	0.0	1.565030369947917	-0.25040138170785786	0.0	1.5199177015761696	-0.30116312498985254	0.0	1.2665831256374476	-0.3476028144424231	0.0	1.3633693204060913	-0.22027724610272256	0.0	1.4867051578934734	-0.27581156994985745	0.0	1.5214539472381896	-0.25114747953781763	0.0	1.5220821269042943	-0.26061603191320104	0.0	1.4927326033993318	-0.3052971460712893	0.0	1.14039278123995	-0.22194172653995659	0.0	1.1066735923379794	-0.14551074130379615	0.0	1.1573682963909986	-0.17520067830310002	0.0	1.1409417673731403	-0.21496398439390563	0.0	1.2470929144790008	-0.23128562034639888	0.0	1.3158185183906081	-0.19736329680740924	0.0	1.1275325521434694	-0.2415322582853917	0.0	1.2217000420416226	-0.24281285046907	0.0	1.3022081612131986	-0.21592740180389372	0.0
109	3.65458089668616	1.275229071773593	-0.34927391248607603	0.0	1.2822268123245613	-0.34083281223606987	0.0	1.399823728995994	-0.22310754037211822	0.0	1.5224999942847588	-0.3012701886618432	0.0	1.5791823943454573	-0.2626376329146468	0.0	1.582617438672104	-0.27610981543143615	0.0	1.5331335935683823	-0.32331432820742595	0.0	1.2713419299386217	-0.3520593565407578	0.0	1.3796846950430453	-0.2365140516900653	0.0	1.498001180408438	-0.2965600216833188	0.0	1.535103172107555	-0.27520920800806425	0.0	1.533942729885671	-0.2836607064545881	0.0	1.5007421669700798	-0.3246279429573635	0.0	1.1491584395834407	-0.2198408881766508	0.0	1.1196297940683424	-0.14418762094947946	0.0	1.169680583179289	-0.17573506662482577	0.0	1.1520859656555635	-0.21259278569394868	0.0	1.2516382811408084	-0.23476152497536057	0.0	1.3219062808888766	-0.2037684085518018	0.0	1.1350571949778672	-0.24045726376516804	0.0	1.2248758907840829	-0.25403144067031413	0.0	1.3062053522233636	-0.2286810651341913	0.0
110	3.6881091617933723	1.2805413350325354	-0.35435887055434173	0.0	1.2888445437850415	-0.3446581446179789	0.0	1.4172090119757976	-0.2390628774470444	0.0	1.5356913784260031	-0.3237233346548018	0.0	1.5955984181362155	-0.2885533640672867	0.0	1.5983336884855013	-0.30204623909601636	0.0	1.544564955166891	-0.34564174668144654	0.0	1.2773673206448586	-0.35662389156623814	0.0	1.3960821265817243	-0.25331404761254633	0.0	1.5089983478427798	-0.31751336877976155	0.0	1.5514961125197553	-0.2981858763972555	0.0	1.5473709615265092	-0.30518318759615887	0.0	1.509200370515885	-0.3434881393579415	0.0	1.1578233768840454	-0.2176409909615985	0.0	1.1327590038084006	-0.14358075896204	0.0	1.1822830773433621	-0.17638212255268418	0.0	1.1634617896458916	-0.2105693468471363	0.0	1.2558325801125165	-0.23862513169488936	0.0	1.3273761268916031	-0.210293898181447	0.0	1.142584348872913	-0.24015724876532388	0.0	1.2271548521989946	-0.265628335922482	0.0	1.3089036769379172	-0.24131306263522576	0.0
111	3.721637426900585	1.2867518995225662	-0.35902540816406475	0.0	1.2958464271874104	-0.34842504848864114	0.0	1.4328716218069837	-0.25556773315481707	0.0	1.5474380048121432	-0.3462387265588395	0.0	1.609842622390818	-0.31416763620353766	0.0	1.6116635412385785	-0.3279610305223443	0.0	1.554287419367282	-0.368023429050699	0.0	1.2844381304897288	-0.361083377062689	0.0	1.4126089033438753	-0.2699985774635103	0.0	1.5201436685399266	-0.33877579088156373	0.0	1.5705583114199007	-0.3202517920165535	0.0	1.5628250859229815	-0.3259630882000865	0.0	1.51882286763597	-0.36277015794465606	0.0	1.1666406815540764	-0.21578444876211123	0.0	1.145823862655075	-0.14352927463153492	0.0	1.1949310071094084	-0.1771147139828362	0.0	1.174600711719555	-0.20916541584609807	0.0	1.2595134755780213	-0.24271172091552698	0.0	1.3323437101913904	-0.21675700205016524	0.0	1.1504486755016015	-0.240679791590122	0.0	1.2292721952544428	-0.27625642392078154	0.0	1.3111529900480257	-0.25227806818691006	0.0
112	3.7551656920077976	1.2938896260035235	-0.36290123583560135	0.0	1.3031544959126617	-0.35196225634307965	0.0	1.446952712111308	-0.2729284609214276	0.0	1.558050902030242	-0.3690324604432672	0.0	1.622167950169671	-0.340127801730161	0.0	1.6227209187649574	-0.35437739483065755	0.0	1.562849328419224	-0.3906734792689592	0.0	1.2922792005305888	-0.3653462763614325	0.0	1.4290953605181935	-0.28643836343103	0.0	1.5317508270584295	-0.3608419417102	0.0	1.590495299299654	-0.34249062918761297	0.0	1.5794369225169513	-0.3476166302249473	0.0	1.5300515753637245	-0.3837260094933299	0.0	1.1759710118925526	-0.21469823108909925	0.0	1.1587898471568565	-0.14391807575393373	0.0	1.207546975026525	-0.17802745540907144	0.0	1.1854563280350596	-0.2086302141288103	0.0	1.2626416346521678	-0.24700794409900445	0.0	1.3370421359158768	-0.22326071233288783	0.0	1.159029459446328	-0.24209834004737243	0.0	1.2319678539924286	-0.2855333242685031	0.0	1.3136798932465223	-0.26089988305213846	0.0
113	3.78869395711501	1.3019043463036672	-0.3659828794625511	0.0	1.3108707575696685	-0.35514946131134023	0.0	1.4598398895086293	-0.2914185607009831	0.0	1.5678345322495302	-0.3923280520373374	0.0	1.6331157061449224	-0.36741297118419414	0.0	1.6320387064473743	-0.38200143632020356	0.0	1.57082230465607	-0.4138391198367172	0.0	1.3005877605424259	-0.36952279286064943	0.0	1.4451365933937086	-0.30300642765684194	0.0	1.543899161326473	-0.38403574376826216	0.0	1.6092174124893261	-0.3661563048833318	0.0	1.5959322737943964	-0.3715322594179452	0.0	1.5426661144994218	-0.4069853217463868	0.0	1.1860118846540293	-0.21460917642249905	0.0	1.171801134617621	-0.14473568351150035	0.0	1.2200653998620627	-0.1792304646397427	0.0	1.1962463077390635	-0.2090443998680527	0.0	1.2653271316729846	-0.25157967712354634	0.0	1.3416892892881989	-0.22991596405937134	0.0	1.1685217811738666	-0.24443080526785205	0.0	1.2357147353969957	-0.29375859236230595	0.0	1.317020992432578	-0.26754980784601773	0.0
114	3.8222222222222224	1.3105282441909116	-0.368545174705018	0.0	1.3190492839096044	-0.35798714797780606	0.0	1.4717632508250258	-0.3108468544467744	0.0	1.5768296711619767	-0.4159532466098923	0.0	1.6431039760330945	-0.3963346100840175	0.0	1.640132676258804	-0.41084506176445945	0.0	1.578424347389136	-0.43741682281076616	0.0	1.3090225914262914	-0.3737786932498672	0.0	1.4601721825579432	-0.32003169044731905	0.0	1.5563152742815587	-0.4080254633425688	0.0	1.6256236184544344	-0.3917609721935789	0.0	1.6115208426904688	-0.3979119741304128	0.0	1.555735170045182	-0.4320282777112058	0.0	1.1966345920985038	-0.21551421330907686	0.0	1.184905910897569	-0.1460017251596478	0.0	1.2322769112893304	-0.18082560098759495	0.0	1.207132966297871	-0.2102977667181529	0.0	1.26775294024865	-0.25639871343830617	0.0	1.3464064924533956	-0.23666504142721506	0.0	1.1787471611175555	-0.24750214880577182	0.0	1.240554817947425	-0.30120969756314064	0.0	1.321659316157438	-0.273008474002344	0.0
115	3.8557504873294346	1.3193657385001052	-0.3709202347355445	0.0	1.3275938876543525	-0.36059388097629475	0.0	1.482765574080329	-0.3306877149454092	0.0	1.5849383717492216	-0.4395101359119386	0.0	1.6523596090234673	-0.42615790873974724	0.0	1.6473756793949572	-0.4400464047975982	0.0	1.5855884469882642	-0.4611107189127871	0.0	1.3173271385903256	-0.37817178518302624	0.0	1.4737606531092633	-0.3375275920197874	0.0	1.5684185200974805	-0.4321640039541953	0.0	1.6395406516967375	-0.41883933085625763	0.0	1.625704623588453	-0.42569429580786955	0.0	1.5681081771698175	-0.4577148241805039	0.0	1.2075185442181582	-0.2173024609558643	0.0	1.1979819218537198	-0.1476719894839278	0.0	1.2439831157079624	-0.18296825802890831	0.0	1.2181359691391536	-0.21216538097675713	0.0	1.2700612329995717	-0.26128964483470796	0.0	1.3512449732973704	-0.2434020925875295	0.0	1.1892359791053295	-0.25096346315665685	0.0	1.2460543873332661	-0.3081775772948033	0.0	1.3279345722646896	-0.2780407994796173	0.0
116	3.8892787524366472	1.3280784336551144	-0.37337210596788645	0.0	1.3362689244875927	-0.3631410786560163	0.0	1.4928606330292122	-0.3503477248854506	0.0	1.59210487134657	-0.4626309635174728	0.0	1.660934863199991	-0.45548953730290226	0.0	1.653999411655964	-0.46836852464616496	0.0	1.5921613721660604	-0.48460917352571503	0.0	1.3254443997707013	-0.3825599059280754	0.0	1.4857689926458257	-0.3552406668478276	0.0	1.5796206161733786	-0.4558684914270519	0.0	1.6513172233733142	-0.44618460340230054	0.0	1.638150575948961	-0.4531483828258233	0.0	1.5790184732208157	-0.48295085483156364	0.0	1.2183559953941314	-0.2199220745761975	0.0	1.2108896009469565	-0.14959562588586048	0.0	1.2551496322003681	-0.18580664477977565	0.0	1.2291506245613004	-0.2144181267000268	0.0	1.2723043590513552	-0.26600213215716934	0.0	1.3561811687651226	-0.2500962988408241	0.0	1.199471982735561	-0.2544759825440497	0.0	1.2514889753207599	-0.31513283676080545	0.0	1.3356401853754631	-0.2834623083933269	0.0
117	3.92280701754386	1.3364257056073445	-0.3760786321491246	0.0	1.3447557778286114	-0.36582340584931194	0.0	1.5020621599130117	-0.36923729915351194	0.0	1.5982866957222077	-0.48493770805976605	0.0	1.6686220368384619	-0.48311360209518217	0.0	1.6600144401248704	-0.4949131619127258	0.0	1.5979067826475088	-0.5074511692516238	0.0	1.3334770107023528	-0.38667598456866437	0.0	1.4962685769694648	-0.372768088809908	0.0	1.5894772882680317	-0.47856045393567087	0.0	1.6613013247574029	-0.4724083692359344	0.0	1.648705672446072	-0.4788075986903696	0.0	1.5882295635578607	-0.5068441144098235	0.0	1.2288748798206597	-0.2232724781125561	0.0	1.2235039880575853	-0.15159733239740902	0.0	1.2658657818940224	-0.18926822590284267	0.0	1.239904758099456	-0.21691131488946372	0.0	1.274451841847762	-0.2703206109439339	0.0	1.3610269615583732	-0.25675935394157123	0.0	1.2090179306773203	-0.25791379028307226	0.0	1.256050996186178	-0.3225400015171404	0.0	1.343550391522543	-0.29010307943313374	0.0
118	3.956335282651072	1.3442829356247357	-0.3791801568399808	0.0	1.352812977413165	-0.36887260365930086	0.0	1.5103525377965346	-0.386961301427324	0.0	1.6034283106866538	-0.5061583831880131	0.0	1.6749892846137775	-0.508744847424947	0.0	1.6651935232208503	-0.5196066489589329	0.0	1.6025132948764285	-0.5291551368612416	0.0	1.3415852253710328	-0.3903650677241385	0.0	1.505379876202612	-0.38979791072221565	0.0	1.59766261999843	-0.49976452921192843	0.0	1.6694093912111416	-0.4967258745257137	0.0	1.6571927853543411	-0.5022001971261867	0.0	1.5957943035101065	-0.5287692963101084	0.0	1.2389061775165258	-0.22704517917885003	0.0	1.2357557500828042	-0.1536068054850597	0.0	1.2763513838079217	-0.19302075808212685	0.0	1.2500993850289381	-0.2196301260827095	0.0	1.276420073188865	-0.27413853104339414	0.0	1.36546281225997	-0.2635018866431834	0.0	1.2176297003024499	-0.26138333081215825	0.0	1.2589925173534504	-0.33081396072006325	0.0	1.3495931194503452	-0.2985851430400005	0.0
